<svg width="700" height="424" viewBox="0 0 700 424" fill="none" xmlns="http://www.w3.org/2000/svg">
<path d="M299.582 211.491C299.582 205.784 300.5 200.747 302.361 196.429C304.222 192.087 307.001 188.662 310.747 186.156C314.494 183.65 318.96 182.384 324.171 182.384C329.381 182.384 333.947 183.65 337.693 186.156C341.44 188.662 344.194 192.087 346.005 196.404C347.817 200.722 348.71 205.759 348.71 211.491C348.71 217.223 347.817 222.335 346.005 226.653C344.194 230.995 341.415 234.395 337.693 236.926C333.947 239.432 329.456 240.698 324.171 240.698C318.886 240.698 314.469 239.432 310.747 236.926C307.001 234.42 304.222 230.995 302.361 226.653C300.5 222.31 299.582 217.248 299.582 211.516V211.491ZM311.268 211.491C311.268 217.869 312.335 222.782 314.494 226.206C316.652 229.63 319.878 231.343 324.171 231.343C328.463 231.343 331.788 229.63 333.947 226.206C336.105 222.782 337.197 217.869 337.197 211.491C337.197 205.114 336.105 200.275 333.947 196.851C331.788 193.427 328.513 191.714 324.171 191.714C319.828 191.714 316.652 193.427 314.494 196.851C312.335 200.275 311.268 205.164 311.268 211.491ZM372.48 239.879V215.437H396.399V206.107H372.48V192.459H400.443V183.129H361.29V239.854H372.455L372.48 239.879ZM696.104 371.444C693.499 367.175 689.753 363.478 684.889 360.376C680.001 357.275 674.071 354.396 667.099 351.716C661.665 349.607 657.199 347.672 653.701 345.885C650.202 344.123 647.622 342.138 645.959 339.979C644.297 337.82 643.453 335.289 643.453 332.411C643.453 329.532 644.148 327.2 645.537 325.091C646.927 322.981 648.837 321.344 651.269 320.177C653.701 319.011 656.43 318.44 659.407 318.44C663.625 318.44 667.397 319.582 670.722 321.84C674.047 324.123 676.875 327.349 679.207 331.567L694.517 322.262C690.968 315.264 686.254 310.053 680.374 306.629C674.493 303.204 667.744 301.467 660.077 301.467C652.981 301.467 646.704 302.807 641.294 305.463C635.861 308.118 631.643 311.815 628.665 316.53C625.663 321.244 624.174 326.654 624.174 332.758C624.174 338.863 625.44 343.701 627.995 347.969C630.551 352.237 634.248 355.935 639.136 359.036C644.024 362.138 649.954 365.017 656.926 367.697C662.037 369.682 666.355 371.617 669.903 373.429C673.451 375.265 676.156 377.3 678.041 379.583C679.927 381.865 680.87 384.719 680.87 388.143C680.87 391.369 680.001 394.248 678.289 396.804C676.577 399.359 674.22 401.32 671.218 402.709C668.216 404.099 664.841 404.794 661.07 404.794C654.296 404.794 648.614 402.908 644.024 399.136C641.071 396.704 638.813 393.528 637.25 389.632L620.08 398.789C622.561 404.099 626.109 408.64 630.725 412.437C638.441 418.764 648.391 421.916 660.574 421.916C668.34 421.916 675.188 420.402 681.118 417.35C687.048 414.298 691.688 410.178 695.013 404.967C698.338 399.757 700 393.776 700 387.002C700 380.898 698.685 375.712 696.104 371.444ZM146.54 418.491H166.614C168.524 411.171 176.439 381.642 190.384 329.408L214.923 418.491H236.609L261.991 305.09H243.308L224.848 391.171L203.311 305.09H179.938L158.153 390.848C154.729 370.947 149.592 342.733 142.794 305.09H124.11L146.59 418.491H146.54ZM521.055 418.466V305.09H563.062C578.445 305.239 590.182 310.425 598.295 320.599C606.409 330.773 610.453 344.545 610.453 361.865C610.453 373.503 608.791 383.528 605.441 391.94C602.091 400.352 596.906 406.953 589.834 411.667C582.787 416.407 574.128 418.466 563.856 418.466H521.055ZM539.515 401.915H563.161C571.994 401.915 578.917 398.342 583.929 391.22C588.941 384.099 591.447 374.024 591.447 360.997C591.447 347.969 588.941 337.87 583.929 330.798C578.917 323.751 571.994 320.227 563.161 320.227H539.515V401.915ZM564.005 377.523L581.845 360.5L565.915 346.356L547.951 363.85L564.005 377.523ZM270.254 363.577C270.254 351.766 272.09 341.369 275.787 332.411C279.459 323.453 285.067 316.356 292.585 311.145C300.103 305.934 309.11 303.329 319.63 303.329C330.15 303.329 339.38 305.934 346.923 311.145C354.466 316.356 360.074 323.428 363.746 332.361C367.418 341.294 369.254 351.716 369.254 363.577C369.254 375.439 367.418 385.985 363.746 394.967C360.074 403.925 354.466 411.022 346.923 416.208C339.38 421.395 330.274 424 319.63 424C308.986 424 300.128 421.395 292.585 416.208C285.067 411.022 279.459 403.925 275.787 394.943C272.115 385.96 270.254 375.513 270.254 363.602V363.577ZM289.458 363.577C289.458 377.846 291.989 388.838 297.076 396.556C302.162 404.273 309.68 408.119 319.605 408.119C329.53 408.119 337.172 404.248 342.308 396.531C347.444 388.789 350 377.821 350 363.602C350 349.384 347.444 338.49 342.308 330.798C337.172 323.081 329.604 319.234 319.605 319.234C309.606 319.234 302.137 323.081 297.076 330.798C291.989 338.515 289.458 349.433 289.458 363.602V363.577ZM319.258 378.764L337.098 361.741L321.168 347.597L303.204 365.091L319.258 378.764ZM505.547 394.67C504.381 403.28 500.709 405.042 495.573 405.042C486.442 405.042 481.579 395.141 476.443 384.645C473.391 378.416 470.264 372.014 466.046 367.622C479.892 359.136 487.782 348.59 487.782 338.49C487.782 320.674 472.175 301.517 437.885 301.517C423.394 301.517 410.021 306.182 400.22 314.619C391.188 322.411 386.027 332.659 386.027 342.758C386.027 361.344 395.059 372.188 411.509 373.429L411.385 395.513C405.629 395.389 399.972 397.523 395.729 401.667L387.293 409.955L378.683 418.417L380.42 420.675C386.399 414.794 395.257 412.858 403.148 415.762L416.844 420.774C424.759 423.677 433.617 421.742 439.597 415.811L456.618 398.938L454.732 396.853C448.752 402.734 439.919 404.645 432.054 401.766L418.407 396.779C417.514 396.456 416.621 396.208 415.703 396.01C418.308 392.412 423.419 385.637 427.563 382.138C430.367 379.756 433.865 378.441 437.835 378.441C442.252 378.441 446.197 380.178 449.1 383.057C453.02 386.878 455.799 392.56 458.702 398.938C463.813 410.154 469.073 421.767 481.132 421.767C493.191 421.767 507.458 409.384 508.153 394.918L505.572 394.67H505.547ZM447.785 362.262C442.921 362.883 433.071 375.29 433.071 375.29L433.17 323.13L419.499 335.761C416.025 338.838 413.494 341.542 411.956 343.776L411.733 344.098L411.534 370.674C398.185 369.384 390.27 361.071 390.27 348.217C390.27 329.88 408.234 320.301 425.95 320.301C452.524 320.301 467.783 331.393 467.783 350.749C467.783 357.076 466.344 362.237 463.689 365.488C460.389 362.957 451.432 361.791 447.76 362.262H447.785ZM82.4259 343.676L79.2252 342.833C76.6943 342.188 74.1883 341.567 71.7071 340.972C58.1845 337.696 46.3491 334.545 45.2573 327.423C44.9844 325.686 45.4062 323.602 46.3987 322.56C46.8949 322.063 47.9619 321.021 48.8799 320.153C49.9716 320.376 51.0882 320.699 52.2295 321.12L73.6424 328.887C81.9793 331.915 91.2839 330.277 98.0824 324.57C98.0824 324.57 109.471 314.52 116.84 308.192L114.434 306.406C113.788 307.001 113.193 307.497 112.771 307.845C105.774 313.428 95.9485 314.693 87.5372 311.641L66.695 304.023C58.3581 300.971 50.2694 302.609 43.4709 308.291L23.1249 328.391L24.8618 330.575L29.849 325.537C34.8114 321.319 39.9724 319.284 45.6543 319.681C43.8182 321.468 41.3618 323.85 40.5927 324.619C34.6874 330.351 30.643 334.495 30.7422 339.483C30.8167 342.783 32.0573 345.463 34.1663 347.647C25.1595 354.173 18.4354 359.036 18.6091 367.448C18.8076 376.655 28.0129 380.798 37.2182 383.454L20.47 399.831C20.47 399.831 20.3956 399.881 20.3708 399.905L18.4354 401.816L0 419.98L1.73685 422.164L6.72409 417.126C13.5226 411.345 20.7429 409.657 29.1294 412.71L50.5175 420.476C58.8544 423.529 68.1838 421.866 74.9575 416.159C74.9575 416.159 92.7974 401.419 98.4546 396.183C107.784 387.523 112.97 376.828 112.92 369.533C112.796 354.471 98.3305 348.093 82.4259 343.676ZM33.1242 356.778C33.0498 354.074 33.422 352.486 35.7791 349.483L35.928 349.334C41.6844 353.801 52.2792 356.307 62.4273 358.739L53.0732 367.87C42.9746 365.662 33.2731 362.957 33.1242 356.778ZM69.0274 404.422C67.489 404.173 65.9507 403.776 64.4371 403.23L43.5949 395.613C38.5084 393.751 33.4964 393.627 28.8317 395.166L39.9972 384.322C43.2972 385.141 46.8949 385.885 50.2446 386.58C61.7822 388.962 72.6996 391.196 72.8236 396.903C72.8981 399.98 71.2108 402.511 69.0274 404.422ZM96.6681 383.677C96.2711 389.533 93.517 395.017 89.026 398.814C84.4605 402.709 78.7537 404.744 72.9477 404.744C72.6748 404.744 72.377 404.744 72.1041 404.695C77.0913 401.096 86.1726 393.876 85.9741 384.818C85.7259 374.918 69.7221 371.468 56.1002 368.54L65.2063 359.582C81.4583 363.503 96.544 368.193 96.8418 381.121L96.6681 383.677ZM597.675 99.9019C596.236 100.82 595.194 101.217 594.052 101.217C591.645 101.217 589.859 100.15 588.569 97.9416C588.37 97.5942 587.8 95.3361 587.8 89.6785C587.8 88.5866 588.891 36.9731 588.891 29.6033C588.891 13.6726 579.934 2.9777 566.585 2.9777C557.107 2.9777 549.539 10.1738 534.503 24.5412L532.071 26.8489C530.31 20.8935 528.747 14.8389 528.747 9.90086C528.747 6.3028 529.615 3.8462 531.575 1.98513L529.888 0C515.993 10.4468 509.468 16.5262 509.468 27.1219C509.468 34.5413 512.321 42.8541 515.323 51.6631C518.723 61.5888 522.221 71.8371 522.221 82.0853C522.221 86.2789 517.507 92.284 513.785 96.0309C513.785 96.0309 504.778 103.599 493.042 116.478L494.903 118.339C501.081 112.706 502.892 111.217 507.433 111.217C510.857 111.217 514.604 112.632 518.549 114.145C522.767 115.733 527.134 117.396 531.451 117.396C541.004 117.396 546.19 111.465 557.554 98.4379L559.811 95.8572L557.975 93.9961L557.678 94.2443C553.782 97.5446 552.467 98.6612 547.033 98.6612C542.319 98.6612 538.423 97.222 534.627 95.8076C531.029 94.4676 527.308 93.078 523.015 93.0284C522.32 93.0284 521.65 93.0532 520.956 93.1276C534.23 83.1275 540.954 73.1522 540.954 63.4995C540.954 54.5168 537.605 44.2189 534.379 34.2684C533.883 32.7547 533.387 31.2411 532.915 29.7522C540.309 23.375 544.527 20.3476 550.011 20.3476C560.829 20.3476 566.56 26.7497 566.56 38.8094L565.469 102.334C565.469 106.775 566.56 109.679 569.389 112.756C573.905 117.545 577.354 118.24 578.991 118.24C581.026 118.24 582.142 117.52 583.135 116.8C585.542 115.014 589.933 110.795 593.829 107.073C596.161 104.84 598.196 102.904 599.188 102.036L597.625 99.9267L597.675 99.9019ZM229.487 94.7902C231.721 99.8027 234.772 103.922 238.643 107.172C242.514 110.423 247.005 112.905 252.116 114.642C257.227 116.379 262.686 117.247 268.517 117.247C276.382 117.247 283.479 115.758 289.781 112.805C296.083 109.852 301.17 105.361 305.016 99.3312C308.861 93.3013 310.797 86.2293 310.797 78.0654V3.47399H292.957V77.9165C292.957 84.9638 290.6 90.7455 285.91 95.2865C281.221 99.8275 275.415 102.086 268.492 102.086C261.57 102.086 255.714 99.8275 251 95.2865C246.31 90.7455 243.953 84.9638 243.953 77.9165V3.47399H226.113V78.0902C226.113 84.2193 227.23 89.7777 229.463 94.7902H229.487ZM267.574 84.0705L285.712 66.7502L269.485 52.3579L251.223 70.1497L267.574 84.0705ZM354.144 68.3134H373.696L387.094 52.2587H354.144V19.5536H385.928L399.376 3.4988H350L335.41 20.6702L335.311 117.098H384.911L398.706 100.721H354.119V68.3134H354.144ZM440.167 68.3134H459.719L473.118 52.2587H440.167V19.5536H471.952L485.4 3.4988H436.024L421.434 20.6702L421.335 117.098H470.934L484.73 100.721H440.143V68.3134H440.167ZM146.615 113.972C164.207 113.972 175.422 98.289 182.741 90.5221C197.405 74.9388 207.305 63.0528 207.305 43.6978C207.181 18.2136 191.773 1.98513 166.092 0.29777H165.522L150.337 14.8141L137.658 26.5264C134.308 29.5041 131.877 32.0847 130.388 34.2436L130.164 34.5662L130.388 86.6015C122.597 79.4798 118.751 68.2638 118.751 52.8542C118.751 37.4446 123.515 25.4842 133.787 14.4667L131.951 12.6552C115.525 28.2634 100.812 44.3429 100.812 69.5045C100.936 97.346 118.081 113.972 146.64 113.972H146.615ZM151.379 69.2316L150.858 17.5188C176.96 18.2632 189.118 32.0847 189.118 60.9684C189.118 74.0455 185.744 82.7553 180.98 88.4626C176.29 94.0706 168.723 96.0061 160.386 96.0061C147.781 96.0061 138.104 93.1525 131.256 87.3956L151.379 69.2316ZM167.606 82.8546L151.428 69.0827L169.517 51.4646L185.57 65.7328L167.606 82.8794V82.8546ZM132.298 135.262C134.68 135.461 136.814 135.932 139.072 136.751L160.386 144.518C168.723 147.545 178.027 145.907 184.826 140.2C184.826 140.2 196.214 130.15 203.584 123.823L201.177 122.036C200.532 122.632 199.936 123.128 199.514 123.475C192.517 129.059 182.692 130.324 174.28 127.272L153.438 119.654C145.101 116.602 137.013 118.24 130.214 123.922L109.868 144.022L111.605 146.205L116.592 141.168C121.555 136.949 126.616 134.89 132.298 135.287V135.262Z" fill="#F5F5F5"/>
</svg>
